Coordinates
version=1
nRows=26
nColumns=24
inDegrees=yes

Units are S.I. units (second, meters, Newtons, ...)
Angles are in degrees.

endheader
time	pelvis_tilt	pelvis_list	pelvis_rotation	pelvis_tx	pelvis_ty	pelvis_tz	hip_flexion_r	hip_adduction_r	hip_rotation_r	knee_angle_r	ankle_angle_r	subtalar_angle_r	mtp_angle_r	hip_flexion_l	hip_adduction_l	hip_rotation_l	knee_angle_l	ankle_angle_l	subtalar_angle_l	mtp_angle_l	lumbar_extension	lumbar_bending	lumbar_rotation
      3.20000000	      6.17422100	      0.03759532	     -3.91232849	      0.82939191	      1.01223724	      0.02892354	    -15.63450146	     -4.79945713	     -5.78556198	    -32.21530034	      0.43016497	     11.76146666	     41.49002580	      9.22652162	      0.73442669	    -13.66007033	     -5.45101281	     -7.68679325	      0.94838049	     16.33412123	    -17.06877331	      0.11066378	      2.90363857
      3.20500000	      6.10299949	      0.25285812	     -3.96072518	      0.83433149	      1.01287874	      0.02804399	    -14.75304985	     -5.27024324	     -5.97384969	    -33.83806781	     -0.39303729	     11.74337389	     40.44717704	      8.97825435	      1.04256920	    -13.64015816	     -5.41060990	     -7.24398574	      1.07254887	     14.45763278	    -17.00089651	     -0.14093699	      2.87515215
      3.21000000	      6.07565886	      0.48201387	     -4.05220400	      0.83925516	      1.01352966	      0.02722297	    -13.90055017	     -5.77586682	     -6.13631792	    -35.44861893	     -1.24861629	     11.57708841	     40.27255383	      8.65085110	      1.36817928	    -13.70826905	     -5.29176756	     -7.05998107	      1.11487477	     14.40576497	    -16.97842367	     -0.41792255	      2.89423544
      3.21500000	      5.95478710	      0.67973980	     -4.18052063	      0.84400097	      1.01402841	      0.02647950	    -12.89815886	     -6.23563341	     -6.17490073	    -37.08339293	     -2.10084132	     11.37116206	     39.82624158	      8.45496227	      1.64062437	    -13.80337242	     -5.22794678	     -6.80957415	      1.13679920	     14.18928959	    -16.86779544	     -0.66609458	      2.93632493
      3.22000000	      5.87819924	      0.88895317	     -4.26845702	      0.84874253	      1.01455496	      0.02569803	    -11.95350923	     -6.70363447	     -6.27315697	    -38.70565855	     -2.69896430	     11.20334159	     37.01867583	      8.19916219	      1.93589811	    -13.88076818	     -5.13531209	     -6.43314599	      1.30242080	     12.59409806	    -16.80298304	     -0.91739284	      2.93333844
      3.22500000	      5.80715753	      1.09302828	     -4.43908317	      0.85341690	      1.01506114	      0.02506305	    -10.98660176	     -7.16754406	     -6.24440827	    -40.28288121	     -3.48868716	     10.79329191	     36.70429710	      7.93010951	      2.21143382	    -14.09805401	     -5.02349018	     -6.20892693	      1.44926731	     12.55957388	    -16.74632655	     -1.18623964	      3.00486694
      3.23000000	      5.70803257	      1.28178601	     -4.54428250	      0.85799183	      1.01548600	      0.02435377	     -9.98819403	     -7.59590607	     -6.26543154	    -41.86558520	     -3.98484713	     10.48026069	     33.86122257	      7.70908446	      2.47743230	    -14.20385618	     -4.92952760	     -5.90084005	      1.56803160	     11.52225736	    -16.66743605	     -1.41992847	      3.00967613
      3.23500000	      5.63476206	      1.46962162	     -4.73527333	      0.86255771	      1.01594051	      0.02378949	     -9.00342552	     -8.02026464	     -6.16643667	    -43.37459686	     -4.67704192	      9.90103826	     33.51708259	      7.44598811	      2.73049066	    -14.47451152	     -4.81401720	     -5.66809960	      1.76976545	     11.47519295	    -16.61272951	     -1.67459317	      3.09362497
      3.24000000	      5.51096583	      1.65697350	     -4.84557059	      0.86701571	      1.01627639	      0.02310862	     -7.96462383	     -8.42531070	     -6.14022561	    -44.89154128	     -5.00570170	      9.46195585	     30.44930385	      7.25797822	      2.99238218	    -14.58104706	     -4.71405591	     -5.35546998	      1.88477289	     10.36042404	    -16.51197754	     -1.90254312	      3.09224468
      3.24500000	      5.47348959	      1.82084887	     -5.03502480	      0.87149273	      1.01674172	      0.02261861	     -7.02513238	     -8.79384375	     -6.00319060	    -46.30035299	     -5.52961184	      8.75752796	     30.10949353	      6.95901149	      3.21969422	    -14.86637888	     -4.59586968	     -5.12504432	      2.11820578	     10.34363789	    -16.50028642	     -2.13680272	      3.16449378
      3.25000000	      5.35094662	      1.99430558	     -5.14199513	      0.87586746	      1.01704297	      0.02198189	     -5.99110099	     -9.15365976	     -5.93712447	    -47.72152672	     -5.68150039	      8.19875022	     27.20585981	      6.77223433	      3.46602309	    -14.95729776	     -4.49054389	     -4.83388613	      2.21237951	      9.38838559	    -16.40597915	     -2.34798485	      3.14686375
      3.25500000	      5.30779948	      2.13566639	     -5.32473984	      0.88027427	      1.01748083	      0.02153781	     -5.05457278	     -9.46126741	     -5.76664169	    -49.02574729	     -5.99673123	      7.40029424	     26.87361690	      6.48263465	      3.66911668	    -15.21940480	     -4.36982900	     -4.59348197	      2.43742131	      9.35237982	    -16.39205829	     -2.55617631	      3.20407684
      3.26000000	      5.22348596	      2.29773487	     -5.43228370	      0.88459552	      1.01780566	      0.02096876	     -4.07684128	     -9.77869642	     -5.67001151	    -50.32988616	     -5.93680634	      6.73587385	     24.42604055	      6.25375815	      3.90523022	    -15.29582306	     -4.25778229	     -4.30270430	      2.51715803	      8.40496834	    -16.34208305	     -2.76112639	      3.17683361
      3.26500000	      5.23595464	      2.43176220	     -5.58511495	      0.88899637	      1.01831128	      0.02052520	     -3.23422511	    -10.04937554	     -5.51163239	    -51.49803916	     -6.05814667	      5.86943895	     24.24390086	      5.88253584	      4.11736655	    -15.47026663	     -4.08358122	     -4.14349440	      2.68003368	      8.39139070	    -16.38843408	     -2.95806887	      3.19312143
      3.27000000	      5.14006129	      2.54493226	     -5.73449240	      0.89321384	      1.01862663	      0.02008234	     -2.24038043	    -10.26628738	     -5.30950808	    -52.67237794	     -6.02140010	      5.03473359	     23.85454326	      5.69196982	      4.28516196	    -15.60889943	     -4.02224836	     -3.88531273	      2.75818271	      8.27431257	    -16.33126606	     -3.11892430	      3.22448367
      3.27500000	      5.07573030	      2.68381583	     -5.81485408	      0.89749049	      1.01898947	      0.01955448	     -1.31821024	    -10.50964100	     -5.19666684	    -53.78433050	     -5.68938209	      4.37180441	     21.55445673	      5.44016202	      4.50154387	    -15.60441223	     -3.90223155	     -3.58457508	      2.78900413	      7.16980260	    -16.30659315	     -3.29414722	      3.15613170
      3.28000000	      5.08859123	      2.77508583	     -5.95586736	      0.90179870	      1.01947472	      0.01918467	     -0.49953783	    -10.67347517	     -4.99394815	    -54.77922799	     -5.45933840	      3.53072272	     21.41250018	      5.09028572	      4.66299682	    -15.73109200	     -3.76611897	     -3.40286848	      2.91799598	      7.15792953	    -16.35884027	     -3.44236281	      3.17701862
      3.28500000	      5.06986899	      2.87145578	     -6.06416405	      0.90604474	      1.01991115	      0.01877502	      0.35034433	    -10.82781761	     -4.81462197	    -55.72991562	     -5.16533847	      2.73448222	     21.21777910	      4.78774584	      4.83121099	    -15.76387646	     -3.64416687	     -3.22670247	      2.93615221	      7.08101194	    -16.38624647	     -3.58546157	      3.15914936
      3.29000000	      5.08868516	      2.96998427	     -6.14108053	      0.91036357	      1.02039216	      0.01832132	      1.12674603	    -10.98261152	     -4.67541595	    -56.59683524	     -4.82439075	      1.97620396	     21.06718217	      4.42573843	      5.01538815	    -15.75541545	     -3.48500884	     -3.06197671	      2.94584177	      7.00545008	    -16.44604425	     -3.72177392	      3.08169330
      3.29500000	      5.00605670	      3.02729738	     -6.23773004	      0.91452468	      1.02074516	      0.01794839	      2.03372349	    -11.04138956	     -4.45125461	    -57.43590556	     -4.33777012	      1.30722065	     20.71112822	      4.22207176	      5.12776782	    -15.76408741	     -3.42222631	     -2.82779766	      2.92507056	      6.77381495	    -16.40927749	     -3.81146748	      3.05135183
      3.30000000	      5.07128068	      3.09875502	     -6.28655071	      0.91882707	      1.02130408	      0.01749998	      2.72187181	    -11.14441266	     -4.33602979	    -58.15818363	     -3.89326369	      0.63449776	     20.56258324	      3.81340817	      5.28857596	    -15.70696127	     -3.27430537	     -2.67019997	      2.92258831	      6.67609222	    -16.52663122	     -3.91517584	      2.98977028
      3.30500000	      5.01965843	      3.12760405	     -6.35144620	      0.92295871	      1.02170134	      0.01713341	      3.55881559	    -11.14546903	     -4.13469812	    -58.85763964	     -3.33187100	      0.06809884	     20.26954500	      3.58195952	      5.37263365	    -15.66870734	     -3.22173386	     -2.45858807	      2.90115393	      6.44710290	    -16.53024668	     -3.96959278	      2.96476485
      3.31000000	      4.98503998	      3.17923248	     -6.33755002	      0.92717212	      1.02210444	      0.01664855	      4.33273895	    -11.18634302	     -4.04180653	    -59.48529760	     -2.66655040	     -0.34456385	     19.25225640	      3.32246091	      5.49160326	    -15.55545450	     -3.15396416	     -2.16567403	      2.95403861	      5.62372763	    -16.55031653	     -4.02691408	      2.81211585
      3.31500000	      5.07635281	      3.17981493	     -6.36436034	      0.93141389	      1.02272326	      0.01626269	      4.93492624	    -11.15707063	     -3.90496356	    -59.98390578	     -2.13252428	     -0.84445427	     19.24413594	      2.91273793	      5.57011012	    -15.50806684	     -3.07109340	     -1.96776061	      2.93656216	      5.61878879	    -16.70633571	     -4.05142553	      2.73820597
      3.32000000	      5.06308808	      3.17824409	     -6.38098931	      0.93560897	      1.02318358	      0.01588224	      5.65686770	    -11.10041747	     -3.76283203	    -60.45117411	     -1.59009946	     -1.27889973	     19.21189659	      2.62307867	      5.63050552	    -15.44370575	     -2.99327639	     -1.76334433	      2.94518388	      5.57255205	    -16.74782948	     -4.06070078	      2.67997487
      3.32500000	      5.12263619	      3.12908827	     -6.33539361	      0.93983619	      1.02376475	      0.01544006	      6.23242605	    -10.99784292	     -3.69643082	    -60.80617207	     -0.98759118	     -1.57270607	     19.24293036	      2.26013242	      5.64754250	    -15.33352352	     -2.94356829	     -1.55517107	      2.96601528	      5.57566284	    -16.87883823	     -4.00804488	      2.56274719
